<svg xmlns="http://www.w3.org/2000/svg" version="1.1" xmlns:xlink="http://www.w3.org/1999/xlink" xmlns:svgjs="http://svgjs.dev/svgjs" width="2000" height="1247" viewBox="0 0 2000 1247"><g transform="matrix(1,0,0,1,-1.2121212121212466,0.504858299595071)"><svg viewBox="0 0 396 247" data-background-color="#ffffff" preserveAspectRatio="xMidYMid meet" height="1247" width="2000" xmlns="http://www.w3.org/2000/svg" xmlns:xlink="http://www.w3.org/1999/xlink"><g id="tight-bounds" transform="matrix(1,0,0,1,0.2400000000000091,-0.09999999999999432)"><svg viewBox="0 0 395.52 247.2" height="247.2" width="395.52"><g><svg viewBox="0 0 395.52 247.2" height="247.2" width="395.52"><g transform="matrix(1,0,0,1,49.87593279552817,0)"><svg viewBox="0 0 295.76813440894364 247.2" height="247.2" width="295.76813440894364"><g><svg viewBox="0 0 295.76813440894364 247.2" height="247.2" width="295.76813440894364"><g><svg viewBox="0 0 295.76813440894364 247.2" height="247.2" width="295.76813440894364"><g id="textblocktransform"><svg viewBox="0 0 295.76813440894364 247.2" height="247.2" width="295.76813440894364" id="textblock"><g><svg viewBox="0 0 295.76813440894364 247.2" height="247.2" width="295.76813440894364"><g transform="matrix(1,0,0,1,0,0)"><svg width="295.76813440894364" viewBox="0.12 -35.55 42.537127438583816 35.55" height="247.2" data-palette-color="#ff0000"><g transform="matrix(1,0,0,1,0,0)"><g><svg width="5.958084959055876" viewBox="2.59 -36.86 26.28 36.86" height="8.357421875" data-palette-color="#ff0000" id="scriptelement" x="36.69904247952794" y="-35.55"><path d="M28.87 0L2.95 0 2.95-5.54 15.89-17.52Q17.54-19.12 18.67-20.4 19.8-21.68 20.38-22.91 20.97-24.15 20.97-25.59L20.97-25.59Q20.97-27.18 20.24-28.35 19.51-29.51 18.25-30.14 16.99-30.77 15.39-30.77L15.39-30.77Q13.73-30.77 12.48-30.1 11.24-29.42 10.56-28.16 9.89-26.9 9.89-25.16L9.89-25.16 2.59-25.16Q2.59-28.73 4.21-31.36 5.82-33.98 8.74-35.42 11.65-36.86 15.45-36.86L15.45-36.86Q19.35-36.86 22.26-35.48 25.16-34.11 26.78-31.68 28.39-29.24 28.39-26.1L28.39-26.1Q28.39-24.04 27.58-22.03 26.78-20.03 24.72-17.59 22.66-15.15 18.91-11.74L18.91-11.74 13.6-6.53 13.6-6.29 28.87-6.29 28.87 0Z" opacity="1" transform="matrix(1,0,0,1,0,0)" fill="#ff0000" class="undefined-123" id="av-123"></path></svg></g></g><path d="M17.77-28.81L8.3 0 0.12 0 13.33-35.55 18.51-35.55 17.77-28.81ZM25.54 0L16.04-28.81 15.23-35.55 20.43-35.55 33.72 0 25.54 0ZM25.29-13.28L25.29-7.08 6.45-7.08 6.45-13.28 25.29-13.28Z" opacity="1" transform="matrix(1,0,0,1,0,0)" fill="#ff0000" class="undefined-text-0" data-fill-palette-color="primary" id="text-0"></path></svg></g></svg></g></svg></g></svg></g></svg></g></svg></g></svg></g><defs></defs></svg><rect width="395.52" height="247.2" fill="none" stroke="none" visibility="hidden"></rect></g></svg></g></svg>